# xmcd
#
# Track frame offsets:
#	150
#	12998
#	22972
#	32740
#	45370
#	57219
#	69007
#	82533
#	92264
#	103202
#	113456
#	124078
#	133956
#	146326
#	157812
#	167018
#	177239
#	187373
#	199766
#	215186
#	226970
#	240623
#	251684
#	264467
#
# Disc length: 3711 seconds
#
# Revision: 1
# Processed by: cddbd v1.5.2PL0 Copyright (c) Steve Scherf et al.
# Submitted via: EasyCDDAExtractor 11.0.3.1
#
DISCID=3a0e7d18
DTITLE=Bobby Bare - Detroit City - 500 Miles Away From Home
DYEAR=1993
DGENRE=Country
TTITLE0=Detroit City
TTITLE1=Is It Wrong (For Loving You)
TTITLE2=Lorina
TTITLE3=Shame On Me
TTITLE4=I'd Fight The World
TTITLE5=Dear Wastebasket
TTITLE6=All-American Boy
TTITLE7=I Don't Believe I'll fall In Love Today
TTITLE8=Brooklyn Bridge
TTITLE9=She Called Me Baby
TTITLE10=The Gods Were Angry With Me
TTITLE11=Book Of Love
TTITLE12=500 Miles Away From Home
TTITLE13=Homestead On The Farm
TTITLE14=Let Me Tell You About Mary
TTITLE15=Abilene
TTITLE16=Gotta Travel On
TTITLE17=Lynchin' Party
TTITLE18=Worried Man Blues
TTITLE19=I Wonder Where You Are Tonight
TTITLE20=Noah's Ark
TTITLE21=Sailor Man
TTITLE22=What Kind Of Bird Is That
TTITLE23=Jeannie's Last Kiss
EXTD=
EXTT0=
EXTT1=
EXTT2=
EXTT3=
EXTT4=
EXTT5=
EXTT6=
EXTT7=
EXTT8=
EXTT9=
EXTT10=
EXTT11=
EXTT12=
EXTT13=
EXTT14=
EXTT15=
EXTT16=
EXTT17=
EXTT18=
EXTT19=
EXTT20=
EXTT21=
EXTT22=
EXTT23=
PLAYORDER=
